<svg width="520" height="146" xmlns="http://www.w3.org/2000/svg" xmlns:xlink="http://www.w3.org/1999/xlink" overflow="hidden"><defs><clipPath id="clip0"><rect x="732" y="44" width="520" height="146"/></clipPath><clipPath id="clip1"><rect x="733" y="44" width="518" height="146"/></clipPath><clipPath id="clip2"><rect x="733" y="44" width="518" height="147"/></clipPath><clipPath id="clip3"><rect x="733" y="44" width="538" height="147"/></clipPath><clipPath id="clip4"><rect x="733" y="44" width="538" height="146"/></clipPath><clipPath id="clip5"><rect x="733" y="44" width="538" height="146"/></clipPath><clipPath id="clip6"><rect x="733" y="44" width="538" height="146"/></clipPath><clipPath id="clip7"><rect x="733" y="44" width="538" height="146"/></clipPath><clipPath id="clip8"><rect x="733" y="44" width="538" height="146"/></clipPath><clipPath id="clip9"><rect x="733" y="44" width="538" height="146"/></clipPath><clipPath id="clip10"><rect x="733" y="44" width="538" height="146"/></clipPath><clipPath id="clip11"><rect x="733" y="44" width="538" height="146"/></clipPath><clipPath id="clip12"><rect x="733" y="44" width="53" height="146"/></clipPath><clipPath id="clip13"><rect x="733" y="44" width="53" height="146"/></clipPath><clipPath id="clip14"><rect x="629" y="44" width="540" height="146"/></clipPath></defs><g clip-path="url(#clip0)" transform="translate(-732 -44)"><g clip-path="url(#clip1)"><g clip-path="url(#clip2)"><g clip-path="url(#clip3)"><g clip-path="url(#clip4)"><g clip-path="url(#clip5)"><g clip-path="url(#clip6)"><g clip-path="url(#clip7)"><g clip-path="url(#clip8)"><g clip-path="url(#clip9)"><g clip-path="url(#clip10)"><g clip-path="url(#clip11)"><path d="M85.8973 129.405C85.6454 129.153 85.5618 122.275 85.5618 99.0951L85.5618 69.1483 84.8904 66.52C83.6603 61.7387 82.7097 59.8372 79.4659 55.7826 77.5367 53.3781 73.2306 50.526 69.2881 49.0439 62.997 46.6952 62.1863 46.5558 54.5247 46.5835 46.22 46.6117 45.5213 46.7234 39.0621 49.1002 37.3844 49.7434 34.0568 51.4488 33.0223 52.26 32.4911 52.6513 31.1209 53.9373 29.9467 55.084 28.269 56.7336 27.5139 57.74 26.4514 59.7813 24.8297 62.9689 24.3264 64.8146 24.3264 67.6662 24.3264 70.2668 24.8017 72.2519 25.9481 74.5452 26.3955 75.4395 26.8429 76.5303 26.9547 76.9497 27.1505 77.8163 30.7853 81.5631 33.246 83.4365 36.0142 85.506 40.2643 87.4071 45.2971 88.7775 46.5835 89.1125 51.5605 89.5601 54.2451 89.5601 57.237 89.5601 61.6547 89.1125 63.3325 88.6373 63.9476 88.4697 64.8981 88.2182 65.4297 88.078 68.9527 87.2391 75.4395 83.8282 78.0678 81.4514 78.3197 81.2276 78.6833 81.1159 78.8231 81.2276 79.0188 81.3393 79.1309 83.9122 79.1309 88.9169L79.1309 96.4386 78.2357 97.445C77.1735 98.6756 74.7408 100.298 72.8393 101.024 72.0844 101.304 71.3295 101.639 71.1616 101.751 70.9101 101.947 69.6236 102.338 67.9459 102.758 67.5546 102.87 66.7997 103.065 66.2681 103.233 63.0247 104.156 59.3338 104.604 53.2664 104.771 47.0588 104.939 45.465 104.771 38.4468 103.401 36.3778 103.01 30.2821 100.968 28.5206 100.101 27.6817 99.682 26.7031 99.2349 26.3676 99.1509 25.2211 98.7873 22.0895 96.5784 19.6289 94.3414 18.7341 93.5865 17.6995 92.7199 17.2801 92.468 16.8886 92.2165 16.1617 91.4616 15.6863 90.8184 13.002 87.0158 11.7158 84.9744 11.3523 83.968 11.1286 83.3529 10.6812 82.3184 10.3457 81.6471 9.0315 79.1027 8.94761 78.0678 8.94761 66.9395L8.94761 56.4821 9.64668 55.3636C10.0381 54.7481 10.5974 53.6019 10.9049 52.847 12.4148 49.0162 14.5399 45.5213 16.1058 44.2626 16.665 43.8436 18.063 42.5853 19.2374 41.4668 20.4397 40.3763 22.2013 39.0341 23.2079 38.4748 27.2623 36.2938 28.157 35.8465 29.6391 35.371 30.478 35.0914 31.6522 34.6441 32.2674 34.3364 33.7492 33.5815 36.4615 32.7147 38.3069 32.4071 39.1458 32.2674 40.5439 31.9878 41.3828 31.8201 42.4173 31.5685 45.717 31.4845 51.5887 31.4845 64.283 31.5125 66.688 31.9318 73.7063 35.4549 77.9003 37.552 79.1027 38.3629 81.2276 40.5159 82.402 41.7184 83.101 42.2217 83.6044 42.2217 84.8904 42.2217 85.0026 41.8301 85.0026 37.7199 85.0026 34.0568 85.0307 33.8332 85.6176 33.4419 86.1488 33.0783 87.2954 32.9943 92.4122 32.9943 96.9139 32.9943 98.7315 33.0783 99.0669 33.3579 99.5145 33.6655 99.5426 36.7971 99.4864 81.6471L99.4024 129.601 92.8316 129.685C87.9386 129.74 86.1488 129.656 85.8973 129.405Z" fill="#000000" fill-rule="nonzero" fill-opacity="1" transform="matrix(1 0 0 -1.00089 733 189.275)"/><path d="M411.451 128.315C408.207 126.972 406.838 124.987 406.838 121.604 406.838 118.081 408.347 116.04 411.871 114.753 413.38 114.194 414.22 114.082 416.764 114.082 419.728 114.082 419.895 114.138 421.797 115.089 424.173 116.291 424.874 116.906 425.739 118.612 426.495 120.094 426.633 122.61 426.046 123.925 425.403 125.323 422.834 127.783 421.209 128.51 419.87 129.098 419.308 129.181 416.54 129.153 413.772 129.125 413.184 129.042 411.451 128.315Z" fill="#000000" fill-rule="nonzero" fill-opacity="1" transform="matrix(1 0 0 -1.00089 733 189.275)"/><path d="M144.7 104.547C139.275 103.513 138.996 103.457 135.333 102.31 130.579 100.801 127.448 99.4024 125.966 98.1164 125.658 97.8649 124.763 97.3333 123.953 96.9139 122.331 96.1032 117.382 91.3777 115.564 88.9169 113.075 85.5337 111.454 81.032 110.671 75.3559 110.028 70.8261 110.335 58.607 111.118 57.3487 111.23 57.1807 111.426 56.3419 111.566 55.4753 111.873 53.5742 114.53 48.0656 116.208 45.8564 117.382 44.3188 120.737 41.0472 122.499 39.705 123.869 38.6705 127.476 36.5734 129.209 35.8185 130.048 35.4829 131.39 34.8677 132.229 34.4764 137.43 32.1275 140.897 31.5962 152.529 31.4006 161.645 31.2609 162.176 31.3166 166.761 32.7987 170.788 34.0848 171.347 34.3364 172.717 35.1753 175.178 36.6851 176.855 37.8316 177.051 38.1393 177.359 38.6145 177.331 52.7911 176.995 52.9868 176.855 53.0703 176.156 52.679 175.429 52.1479 174.059 51.0853 171.627 49.7711 169.809 49.1002 166.482 47.87 165.503 47.5622 163.853 47.2545 162.847 47.087 161.533 46.8073 160.917 46.6675 159.547 46.3321 149.705 46.4996 146.937 46.919 144.029 47.3666 141.373 48.289 137.262 50.3026 135.92 50.9454 134.55 51.7843 134.187 52.176 133.851 52.5392 133.404 52.847 133.236 52.847 132.9 52.847 132.034 53.7698 129.853 56.3981 129.377 56.9851 128.399 58.6351 127.671 60.0332L126.385 62.6334 126.385 67.6662 126.385 72.6995 127.532 75.0205C129.125 78.1518 130.636 80.3048 132.006 81.4233 132.648 81.9267 133.767 82.8777 134.494 83.5205 136.367 85.2263 141.344 87.4352 146.238 88.7775 147.412 89.0848 152.417 89.5601 154.766 89.5601 156.835 89.5601 159.715 89.2805 163.574 88.6935 165 88.4697 167.153 87.8265 168.467 87.2391 172.689 85.3657 173.835 84.639 178.17 81.0878 180.127 79.494 182.979 74.3491 183.986 70.6304 184.517 68.6453 184.545 67.6944 184.545 55.4753 184.545 41.2988 184.573 41.0751 186.167 38.1672 187.033 36.6014 188.236 35.6786 191.255 34.1968 193.884 32.9106 194.919 32.6867 199.783 32.5191 202.775 32.4071 204.23 32.4911 205.935 32.8546 207.165 33.1063 208.256 33.4139 208.396 33.5256 208.508 33.6376 208.564 36.7971 208.536 40.5719L208.452 47.3947 205.656 47.5622C201.322 47.8137 200.511 48.373 200.091 51.393 199.98 52.4275 199.756 61.7664 199.616 72.1402 199.308 95.8794 199.141 101.779 198.749 102.254 198.33 102.758 185.384 102.786 184.88 102.283 184.657 102.059 184.545 100.689 184.545 97.9766 184.545 94.7327 184.461 93.922 184.098 93.5588 183.874 93.3069 183.594 93.1113 183.538 93.1113 183.035 93.1113 181.665 94.1458 180.351 95.4881 177.191 98.7315 173.36 101.052 168.523 102.674 164.664 103.96 164.189 104.072 161.616 104.352 158.205 104.715 146.35 104.855 144.7 104.547Z" fill="#000000" fill-rule="nonzero" fill-opacity="1" transform="matrix(1 0 0 -1.00089 733 189.275)"/><path d="M249.107 104.715C249.023 104.631 248.073 104.436 247.011 104.268 242.313 103.597 241.027 103.317 238.79 102.506 238.091 102.283 237.336 102.059 237.084 102.059 236.832 102.059 235.323 101.5 233.701 100.829 232.079 100.157 230.429 99.5426 230.038 99.4305 229.646 99.3465 228.835 98.8431 228.248 98.3679 227.633 97.8649 226.207 96.8858 225.089 96.1871 223.02 94.9007 220.419 92.468 217.455 89.0009 215.526 86.7639 214.603 85.3657 213.988 83.7719 211.667 77.6488 211.276 75.5516 211.304 68.6453 211.332 59.6974 212.115 55.4476 214.547 50.7779 215.75 48.457 216.532 47.3947 219.273 44.5145 221.062 42.5853 223.439 40.4322 224.529 39.677 226.459 38.3349 230.429 36.2098 231.799 35.7626 232.191 35.6506 233.449 35.1474 234.595 34.6721 237.364 33.4976 239.936 32.7147 242.005 32.3791 242.928 32.2394 244.578 31.9878 245.64 31.8201 248.129 31.4006 262.725 31.4285 265.772 31.8201 270.442 32.463 272.092 32.9943 276.566 35.2873 279.222 36.6574 280.481 37.4683 280.705 37.9436 280.898 38.3629 281.01 41.2151 281.01 46.0243 281.01 54.2451 280.982 54.3291 279.278 53.0426 277.656 51.8124 272.008 49.0162 269.324 48.0933 265.465 46.7792 263.619 46.5558 256.965 46.5835 249.331 46.5835 247.178 46.919 242.369 48.7647 237.839 50.4983 236.329 51.4766 232.89 55 231.128 56.8176 229.395 58.7468 229.059 59.3061 227.773 61.4309 226.654 66.2962 226.795 69.0925 226.906 70.9378 227.074 71.5533 228.36 74.1816 230.429 78.4037 232.415 80.8922 235.155 82.7097 235.994 83.269 237.056 84.0239 237.503 84.3875 239.237 85.7856 244.578 87.9663 248.017 88.6935 254.812 90.0916 265.241 89.6441 268.708 87.7984 268.988 87.6309 269.463 87.5188 269.771 87.5188 270.666 87.5188 274.58 85.5618 277.097 83.8559 279.25 82.402 282.186 79.578 284.114 77.1172 285.486 75.3836 286.827 72.2242 287.526 69.2042 287.862 67.6662 287.918 30.2541 287.582 26.1159 287.414 24.0747 287.33 23.7392 286.575 23.0402L285.738 22.2293 278.97 22.0056C275.251 21.8937 262.389 21.726 250.394 21.6421 233.561 21.5582 228.556 21.4463 228.388 21.1667 228.052 20.6355 228.109 8.16471 228.444 7.52161 228.724 6.99032 229.395 6.99032 260.963 6.99032 288.867 6.99032 293.343 7.04625 294.376 7.40976 298.208 8.75188 300.948 11.0168 301.956 13.7011 302.541 15.2389 302.541 15.4347 302.541 58.5789 302.541 91.9369 302.457 102.031 302.208 102.283 301.956 102.534 299.996 102.618 295.075 102.618L288.282 102.618 288.142 102.003C288.086 101.639 287.946 100.046 287.89 98.4241 287.75 95.1526 287.498 93.4467 287.135 93.2229 286.603 92.9156 284.926 94.1181 281.766 97.0537 280.509 98.2003 278.886 99.5145 278.159 99.9339 274.664 101.975 268.821 103.849 264.514 104.352 261.718 104.659 249.331 104.967 249.107 104.715Z" fill="#000000" fill-rule="nonzero" fill-opacity="1" transform="matrix(1 0 0 -1.00089 733 189.275)"/><path d="M437.117 102.982C436.84 102.87 436.756 95.5439 436.756 67.6385L436.756 32.4351 472.49 32.4911 508.199 32.575 508.199 40.2643 508.199 47.954 480.459 48.0933C461.922 48.1773 452.639 48.3171 452.442 48.5128 452.249 48.7089 452.106 57.237 452.022 74.2374 451.938 98.8713 451.829 102.087 451.241 102.842 451.014 103.093 449.285 103.177 444.196 103.149 440.501 103.149 437.285 103.065 437.117 102.982Z" fill="#000000" fill-rule="nonzero" fill-opacity="1" transform="matrix(1 0 0 -1.00089 733 189.275)"/><path d="M315.461 102.283C315.209 102.031 315.125 96.075 315.125 77.2012L315.125 52.4275 315.99 49.8551C316.829 47.3385 318.229 44.8218 319.99 42.6969 323.346 38.6425 325.134 37.2167 329.943 34.8117 333.831 32.8546 335.004 32.4911 339.451 31.8201 342.192 31.4006 357.738 31.3725 360.142 31.7921 362.743 32.2394 365.483 33.1623 366.686 33.9731 367.271 34.3644 368.503 35.0636 369.454 35.5389 371.803 36.7411 372.472 37.2444 375.436 39.9847 378.204 42.5571 380.108 44.179 380.357 44.179 380.441 44.179 380.721 43.983 380.945 43.7315 381.309 43.3683 381.393 42.4731 381.393 38.4468 381.393 33.9172 381.42 33.5536 381.924 33.274 382.624 32.9106 394.254 32.9106 395.206 33.274L395.934 33.5536 395.934 67.7502C395.934 93.9778 395.85 102.031 395.598 102.283 395.346 102.534 393.389 102.618 388.494 102.618 382.596 102.618 381.7 102.562 381.561 102.171 381.477 101.919 381.393 93.1113 381.393 82.598L381.393 63.4723 379.968 60.5925C378.456 57.6006 377.896 56.8453 374.988 53.6858 373.032 51.5605 370.823 50.1347 367.131 48.5686 364.867 47.6181 364.251 47.4224 361.178 46.7234 359.554 46.3598 347.812 46.3039 346.609 46.6675 346.133 46.8355 344.792 47.1151 343.645 47.3107 339.871 47.9258 334.864 50.8056 333.103 53.3781 332.068 54.8602 330.587 58.2992 330.167 60.1168 329.831 61.5708 329.439 74.0976 329.243 90.4267 329.134 98.0882 328.994 102.003 328.77 102.254 328.35 102.758 315.962 102.786 315.461 102.283Z" fill="#000000" fill-rule="nonzero" fill-opacity="1" transform="matrix(1 0 0 -1.00089 733 189.275)"/><path d="M409.271 102.422C409.159 102.338 409.075 86.6522 409.075 67.6104 409.075 34.8957 409.103 32.9663 409.579 32.7707 409.828 32.6587 412.904 32.575 416.372 32.575 421.322 32.575 422.804 32.6587 423.14 32.9663 423.585 33.3019 423.615 36.0702 423.615 67.4429 423.615 90.399 423.531 101.723 423.333 102.087 423.056 102.59 422.666 102.618 416.232 102.618 412.512 102.618 409.355 102.534 409.271 102.422Z" fill="#000000" fill-rule="nonzero" fill-opacity="1" transform="matrix(1 0 0 -1.00089 733 189.275)"/></g></g></g><g clip-path="url(#clip12)"><g clip-path="url(#clip13)"><g clip-path="url(#clip14)"><path d="M85.974 129.521C85.7222 129.269 85.6383 122.384 85.6383 99.1834L85.6383 69.2104 84.9666 66.5793C83.7352 61.7938 82.7836 59.8907 79.5371 55.8327 77.6058 53.4261 73.2965 50.5714 69.3501 49.0878 63.0533 46.737 62.2419 46.5973 54.5732 46.625 46.2617 46.6531 45.5618 46.7651 39.097 49.144 37.4178 49.7877 34.0873 51.4948 33.0518 52.3063 32.5201 52.6986 31.1489 53.9858 29.9733 55.1333 28.2941 56.7843 27.5385 57.7916 26.4751 59.8349 24.8519 63.0252 24.3481 64.8721 24.3481 67.7268 24.3481 70.3294 24.8239 72.3168 25.9713 74.6114 26.4191 75.5072 26.8669 76.5989 26.9788 77.0184 27.1747 77.8861 30.8129 81.6361 33.2757 83.5111 36.0465 85.5821 40.3002 87.4852 45.3378 88.8568 46.625 89.1924 51.6069 89.6401 54.2937 89.6401 57.2881 89.6401 61.7099 89.1924 63.389 88.7166 64.0045 88.5488 64.956 88.2971 65.4881 88.1569 69.0145 87.3174 75.5072 83.903 78.1378 81.5241 78.3896 81.3005 78.7537 81.1884 78.8934 81.3005 79.0894 81.4121 79.2014 83.9869 79.2014 88.9965L79.2014 96.5247 78.3056 97.5325C77.2425 98.7639 74.8073 100.387 72.9042 101.115 72.1486 101.395 71.393 101.73 71.2251 101.842 70.9734 102.038 69.6858 102.43 68.0067 102.85 67.6152 102.962 66.8596 103.158 66.3276 103.326 63.0814 104.249 59.3868 104.697 53.3141 104.865 47.1012 105.033 45.506 104.865 38.4814 103.494 36.4102 103.102 30.3092 101.059 28.5461 100.191 27.7065 99.7712 26.7269 99.3236 26.3911 99.2396 25.2437 98.8759 22.1092 96.6648 19.6464 94.426 18.7509 93.6704 17.7153 92.8027 17.2955 92.5506 16.9037 92.2989 16.1761 91.5432 15.7003 90.8996 13.0137 87.0934 11.7263 85.0505 11.3625 84.0427 11.1386 83.4272 10.6908 82.3918 10.3549 81.72 9.03957 79.1733 8.95562 78.1378 8.95562 66.9993L8.95562 56.5325 9.65528 55.4127C10.0471 54.7972 10.6068 53.6497 10.9147 52.8941 12.4259 49.0601 14.5529 45.5618 16.1201 44.3023 16.6799 43.8827 18.0791 42.6232 19.2546 41.5038 20.458 40.4122 22.2211 39.069 23.2286 38.5093 27.2867 36.3262 28.1824 35.8785 29.6656 35.4026 30.5052 35.1229 31.6805 34.675 32.2961 34.3673 33.7794 33.6117 36.4942 32.7441 38.3414 32.4361 39.181 32.2961 40.5802 32.0165 41.4198 31.8485 42.4554 31.5965 45.7573 31.5125 51.635 31.5125 64.3406 31.5405 66.7476 31.9605 73.7719 35.4866 77.97 37.5858 79.1733 38.3974 81.3005 40.5522 82.4757 41.7555 83.1755 42.2595 83.6794 42.2595 84.9666 42.2595 85.0786 41.8675 85.0786 37.7534 85.0786 34.0873 85.1063 33.8634 85.6941 33.4717 86.2257 33.1077 87.3732 33.0237 92.4948 33.0237 97.0009 33.0237 98.8197 33.1077 99.1557 33.3877 99.6034 33.6957 99.6315 36.8301 99.5753 81.72L99.4914 129.717 92.9148 129.801C88.0168 129.856 86.2257 129.773 85.974 129.521Z" fill="#000000" fill-rule="nonzero" fill-opacity="1" transform="matrix(1.0007 0 0 -1 629.683 189.275)"/><path d="M411.819 128.429C408.574 127.086 407.202 125.099 407.202 121.713 407.202 118.186 408.714 116.143 412.239 114.856 413.75 114.296 414.59 114.184 417.135 114.184 420.102 114.184 420.27 114.24 422.175 115.192 424.554 116.395 425.25 117.011 426.119 118.718 426.874 120.201 427.017 122.72 426.425 124.035 425.783 125.435 423.211 127.897 421.588 128.625 420.241 129.213 419.683 129.297 416.914 129.269 414.142 129.241 413.554 129.157 411.819 128.429Z" fill="#000000" fill-rule="nonzero" fill-opacity="1" transform="matrix(1.0007 0 0 -1 629.683 189.275)"/><path d="M144.83 104.641C139.4 103.606 139.12 103.549 135.454 102.402 130.696 100.891 127.562 99.4914 126.079 98.2038 125.771 97.9524 124.875 97.4204 124.063 97.0009 122.44 96.189 117.487 91.4593 115.668 88.9965 113.177 85.6102 111.554 81.1045 110.77 75.4233 110.126 70.8895 110.434 58.6593 111.218 57.4002 111.33 57.2319 111.526 56.3924 111.665 55.5247 111.973 53.6216 114.632 48.1086 116.311 45.8975 117.487 44.3581 120.845 41.0839 122.608 39.7406 123.979 38.705 127.59 36.6062 129.325 35.8505 130.164 35.5146 131.508 34.8989 132.347 34.5073 137.553 32.1564 141.023 31.6245 152.665 31.4285 161.789 31.2888 162.321 31.3448 166.911 32.8281 170.941 34.1153 171.5 34.3673 172.871 35.2069 175.334 36.7182 177.014 37.8654 177.21 38.1734 177.517 38.6491 177.49 52.8383 177.153 53.0342 177.014 53.1181 176.314 52.7263 175.586 52.1943 174.215 51.1311 171.78 49.8158 169.961 49.144 166.63 47.9126 165.651 47.6047 164 47.2967 162.992 47.1289 161.677 46.849 161.061 46.7093 159.69 46.3733 149.839 46.5411 147.068 46.9611 144.157 47.4087 141.499 48.3322 137.385 50.3473 136.041 50.9914 134.67 51.8309 134.307 52.2224 133.971 52.5865 133.523 52.8941 133.355 52.8941 133.019 52.8941 132.152 53.8175 129.968 56.4486 129.493 57.036 128.513 58.6874 127.786 60.0866L126.498 62.6896 126.498 67.7268 126.498 72.7645 127.646 75.0872C129.241 78.2222 130.752 80.377 132.124 81.496 132.767 81.9999 133.887 82.9514 134.615 83.5951 136.489 85.3027 141.471 87.5133 146.369 88.8568 147.544 89.1647 152.554 89.6401 154.905 89.6401 156.975 89.6401 159.858 89.3602 163.72 88.7724 165.147 88.5488 167.302 87.9048 168.618 87.3174 172.844 85.442 173.991 84.7144 178.329 81.1603 180.288 79.5652 183.143 74.4155 184.15 70.6936 184.682 68.7065 184.71 67.7549 184.71 55.5247 184.71 41.3358 184.738 41.1119 186.333 38.2014 187.201 36.6342 188.404 35.7106 191.426 34.2273 194.058 32.94 195.093 32.7161 199.962 32.5481 202.957 32.4361 204.412 32.5201 206.119 32.8841 207.351 33.1357 208.442 33.4437 208.582 33.5557 208.694 33.6677 208.75 36.8301 208.722 40.6082L208.638 47.4369 205.84 47.6047C201.501 47.8568 200.69 48.4165 200.27 51.4386 200.158 52.4745 199.934 61.8219 199.794 72.2048 199.487 95.965 199.319 101.87 198.927 102.346 198.507 102.85 185.549 102.878 185.046 102.374 184.822 102.15 184.71 100.779 184.71 98.0645 184.71 94.8179 184.626 94.006 184.262 93.6423 184.038 93.3901 183.759 93.1946 183.702 93.1946 183.198 93.1946 181.827 94.2301 180.512 95.5735 177.349 98.8197 173.515 101.143 168.674 102.766 164.811 104.053 164.336 104.165 161.761 104.445 158.347 104.809 146.481 104.949 144.83 104.641Z" fill="#000000" fill-rule="nonzero" fill-opacity="1" transform="matrix(1.0007 0 0 -1 629.683 189.275)"/><path d="M249.33 104.809C249.246 104.725 248.295 104.529 247.231 104.361 242.53 103.689 241.242 103.41 239.003 102.598 238.304 102.374 237.548 102.15 237.296 102.15 237.045 102.15 235.533 101.59 233.91 100.919 232.287 100.247 230.635 99.6315 230.243 99.5195 229.852 99.4356 229.04 98.9317 228.452 98.4559 227.837 97.9524 226.409 96.9728 225.29 96.2729 223.219 94.9857 220.616 92.5506 217.65 89.0804 215.719 86.8416 214.795 85.442 214.179 83.8468 211.857 77.7178 211.465 75.6192 211.493 68.7065 211.521 59.751 212.304 55.497 214.739 50.8231 215.943 48.5004 216.726 47.4369 219.469 44.5545 221.26 42.6232 223.639 40.4682 224.73 39.7126 226.661 38.3693 230.635 36.2422 232.007 35.7945 232.398 35.6825 233.658 35.1789 234.805 34.703 237.576 33.5277 240.151 32.7441 242.222 32.4081 243.145 32.2682 244.796 32.0165 245.86 31.8485 248.351 31.4285 262.96 31.4565 266.01 31.8485 270.684 32.4921 272.335 33.0237 276.813 35.3189 279.471 36.6901 280.732 37.5018 280.956 37.9774 281.152 38.3974 281.264 41.2518 281.264 46.0653 281.264 54.2937 281.236 54.3777 279.528 53.09 277.904 51.8586 272.251 49.0601 269.565 48.1363 265.702 46.8209 263.855 46.5973 257.194 46.625 249.554 46.625 247.399 46.9611 242.586 48.8084 238.052 50.5433 236.541 51.523 233.098 55.0494 231.335 56.8682 229.6 58.7994 229.264 59.3591 227.977 61.4863 226.857 66.3553 226.997 69.1542 227.109 71.0015 227.277 71.617 228.564 74.2481 230.635 78.4735 232.622 80.9644 235.365 82.7836 236.205 83.3433 237.268 84.0989 237.716 84.4627 239.451 85.8619 244.796 88.0449 248.239 88.7724 255.04 90.1717 265.479 89.724 268.948 87.8771 269.229 87.7093 269.704 87.5973 270.012 87.5973 270.908 87.5973 274.826 85.6383 277.345 83.9311 279.5 82.4757 282.437 79.6491 284.369 77.1863 285.74 75.4514 287.084 72.2887 287.784 69.2662 288.12 67.7268 288.176 30.2812 287.84 26.1392 287.672 24.0962 287.588 23.7604 286.832 23.0608L285.992 22.2491 279.22 22.0252C275.497 21.9133 262.624 21.7454 250.617 21.6614 233.77 21.5774 228.76 21.4655 228.592 21.1857 228.257 20.6539 228.313 8.172 228.648 7.52831 228.928 6.9966 229.6 6.9966 261.197 6.9966 289.128 6.9966 293.605 7.05253 294.641 7.41637 298.473 8.75972 301.217 11.0266 302.225 13.7133 302.812 15.2526 302.812 15.4485 302.812 58.6312 302.812 92.019 302.729 102.122 302.476 102.374 302.225 102.626 300.265 102.71 295.34 102.71L288.54 102.71 288.4 102.094C288.344 101.73 288.204 100.135 288.148 98.5117 288.008 95.2375 287.756 93.5303 287.392 93.3066 286.86 92.9987 285.18 94.202 282.017 97.1406 280.76 98.2881 279.136 99.6034 278.408 100.023 274.91 102.066 269.06 103.941 264.751 104.445 261.952 104.753 249.554 105.061 249.33 104.809Z" fill="#000000" fill-rule="nonzero" fill-opacity="1" transform="matrix(1.0007 0 0 -1 629.683 189.275)"/><path d="M437.51 103.074C437.229 102.962 437.145 95.6293 437.145 67.6991L437.145 32.4641 472.913 32.5201 508.651 32.6041 508.651 40.3002 508.651 47.9965 480.888 48.1363C462.335 48.2202 453.042 48.3603 452.845 48.5562 452.652 48.7522 452.509 57.2881 452.425 74.3035 452.342 98.9594 452.232 102.178 451.645 102.933 451.419 103.186 449.682 103.27 444.592 103.241 440.896 103.241 437.678 103.158 437.51 103.074Z" fill="#000000" fill-rule="nonzero" fill-opacity="1" transform="matrix(1.0007 0 0 -1 629.683 189.275)"/><path d="M315.741 102.374C315.489 102.122 315.405 96.1609 315.405 77.2702L315.405 52.4745 316.273 49.8997C317.113 47.3806 318.513 44.8624 320.277 42.7352 323.633 38.677 325.425 37.2498 330.237 34.843 334.129 32.8841 335.305 32.5201 339.754 31.8485 342.497 31.4285 358.057 31.4005 360.465 31.8205 363.066 32.2682 365.81 33.1917 367.013 34.0033 367.601 34.3953 368.833 35.0949 369.782 35.5706 372.134 36.7741 372.806 37.2778 375.773 40.0206 378.542 42.5951 380.446 44.2184 380.698 44.2184 380.782 44.2184 381.062 44.0225 381.286 43.7707 381.65 43.4065 381.734 42.5112 381.734 38.4814 381.734 33.9474 381.762 33.5837 382.266 33.3037 382.966 32.94 394.607 32.94 395.559 33.3037L396.286 33.5837 396.286 67.8112C396.286 94.0623 396.202 102.122 395.95 102.374 395.698 102.626 393.738 102.71 388.842 102.71 382.938 102.71 382.042 102.654 381.902 102.262 381.818 102.01 381.734 93.1946 381.734 82.6716L381.734 63.5291 380.306 60.6463C378.794 57.6519 378.234 56.8963 375.326 53.7336 373.366 51.6069 371.154 50.1795 367.461 48.6125 365.194 47.6609 364.578 47.465 361.498 46.7651 359.877 46.4014 348.122 46.3456 346.918 46.7093 346.442 46.8772 345.101 47.157 343.953 47.3529 340.174 47.9689 335.165 50.8512 333.401 53.4261 332.365 54.9092 330.882 58.3517 330.462 60.1705 330.125 61.626 329.734 74.1637 329.541 90.5077 329.429 98.1761 329.288 102.094 329.064 102.346 328.645 102.85 316.245 102.878 315.741 102.374Z" fill="#000000" fill-rule="nonzero" fill-opacity="1" transform="matrix(1.0007 0 0 -1 629.683 189.275)"/><path d="M409.635 102.514C409.523 102.43 409.439 86.7296 409.439 67.671 409.439 34.927 409.467 32.9958 409.943 32.8001 410.195 32.6881 413.275 32.6041 416.746 32.6041 421.697 32.6041 423.182 32.6881 423.518 32.9958 423.967 33.3317 423.996 36.1025 423.996 67.5032 423.996 90.4796 423.912 101.814 423.715 102.178 423.434 102.682 423.044 102.71 416.606 102.71 412.882 102.71 409.719 102.626 409.635 102.514Z" fill="#000000" fill-rule="nonzero" fill-opacity="1" transform="matrix(1.0007 0 0 -1 629.683 189.275)"/></g></g></g></g></g></g></g></g></g></g></g></g></svg>